<?xml version="1.0" standalone="no"?><!DOCTYPE svg PUBLIC "-//W3C//DTD SVG 1.1//EN" "http://www.w3.org/Graphics/SVG/1.1/DTD/svg11.dtd"><svg t="1658312148579" class="icon" viewBox="0 0 1024 1024" version="1.1" xmlns="http://www.w3.org/2000/svg" p-id="6173" data-spm-anchor-id="a313x.7781069.0.i41" xmlns:xlink="http://www.w3.org/1999/xlink" width="200" height="200"><defs><style type="text/css">@font-face { font-family: feedback-iconfont; src: url("//at.alicdn.com/t/font_1031158_u69w8yhxdu.woff2?t=1630033759944") format("woff2"), url("//at.alicdn.com/t/font_1031158_u69w8yhxdu.woff?t=1630033759944") format("woff"), url("//at.alicdn.com/t/font_1031158_u69w8yhxdu.ttf?t=1630033759944") format("truetype"); }
</style></defs><path d="M179.9 774.6h657.3v155.5H179.9z" fill="#005187" p-id="6174" data-spm-anchor-id="a313x.7781069.0.i45" class=""></path><path d="M181.4 835h652.3c15.1 0 27.8-11.5 29.3-26.5 1.1-11.3 1.7-22.7 1.7-33.8V611c0-190.7-155.2-345.9-345.9-345.9h-22.5c-190.7 0-345.9 155.2-345.9 345.9v163.6c0 11.1 0.6 22.5 1.7 33.8 1.5 15.1 14.2 26.6 29.3 26.6z m27.9-224c0-158.3 128.8-287.1 287-287.1h22.5c158.3 0 287 128.8 287 287.1v165.1H209.3V611zM837.1 900.7H188.7c-16.2 0-29.4 13.2-29.4 29.4s13.2 29.4 29.4 29.4h648.4c16.2 0 29.4-13.2 29.4-29.4 0.1-16.2-13.1-29.4-29.4-29.4zM259.6 276.4c5.8 6.3 13.7 9.5 21.7 9.5 7.1 0 14.3-2.6 19.9-7.8 12-11 12.7-29.6 1.7-41.6l-69.8-75.9c-11-12-29.6-12.7-41.6-1.7s-12.7 29.6-1.7 41.6l69.8 75.9zM722.1 278.1c5.7 5.2 12.8 7.8 19.9 7.8 7.9 0 15.9-3.2 21.7-9.5l69.8-75.9c11-12 10.2-30.6-1.7-41.6-11.9-11-30.6-10.2-41.6 1.7l-69.8 75.9c-11.1 12-10.3 30.6 1.7 41.6zM479.7 197.6c0.6 15.9 13.6 28.4 29.4 28.4h1c16.2-0.6 28.9-14.2 28.4-30.4l-3.6-103c-0.6-16.2-13.8-28.8-30.4-28.4-16.2 0.6-28.9 14.2-28.4 30.4l3.6 103z" fill="#ff0000" p-id="6175" data-spm-anchor-id="a313x.7781069.0.i42" class=""></path><path d="M322.2 549.1c3.4 1.3 6.9 1.9 10.4 1.9 11.8 0 23-7.2 27.5-18.9 1-2.5 24.4-61.1 91.7-73.8 16-3 26.5-18.4 23.4-34.4-3-16-18.5-26.4-34.4-23.4-100.5 19-134.4 107.2-135.8 110.9-5.6 15.2 2.1 31.9 17.2 37.7z" fill="#ff0000" p-id="6176" data-spm-anchor-id="a313x.7781069.0.i46" class=""></path></svg>